PathFileType	4	(X/Y/Z)	Patient4_TMGait_0pt6_01_right_20.trc.trc
DataRate	CameraRate	NumFrames	NumMarkers	Units	OrigDataRate	OrigDataStartFrame	OrigNumFrames
81.395348837209	81.395348837209	4	33	mm	81.395348837209	53	       141
Frame#	Time	Sacral			L.Shoulder			Chest			R.Shoulder			Neck			R.ASIS			L.ASIS			R.Thigh.Superior			R.Thigh.Lateral			R.Thigh.Inferior			R.Patella			L.Thigh.Superior			L.Thigh.Lateral			L.Thigh.Inferior			L.Patella			L.Shank.Superior			L.Shank.Lateral			L.Shank.Inferior			R.Shank.Superior			R.Shank.Lateral			R.Shank.Inferior			R.Heel			R.Midfoot.Superior			R.Midfoot.Lateral			R.Toe			L.Heel			L.Midfoot.Lateral			L.Midfoot.Superior			L.Toe			L.Elbow			L.Wrist			R.Elbow			R.Wrist			
		X1	Y1	Z1	X2	Y2	Z2	X3	Y3	Z3	X4	Y4	Z4	X5	Y5	Z5	X6	Y6	Z6	X7	Y7	Z7	X8	Y8	Z8	X9	Y9	Z9	X10	Y10	Z10	X11	Y11	Z11	X12	Y12	Z12	X13	Y13	Z13	X14	Y14	Z14	X15	Y15	Z15	X16	Y16	Z16	X17	Y17	Z17	X18	Y18	Z18	X19	Y19	Z19	X20	Y20	Z20	X21	Y21	Z21	X22	Y22	Z22	X23	Y23	Z23	X24	Y24	Z24	X25	Y25	Z25	X26	Y26	Z26	X27	Y27	Z27	X28	Y28	Z28	X29	Y29	Z29	X30	Y30	Z30	X31	Y31	Z31	X32	Y32	Z32	X33	Y33	Z33	

53	24.348857142857	725.406949730284	1012.672915611201	536.289335606827	882.812646154504	1440.287260716236	347.571407793732	999.370473837567	1372.145026006184	500.613175506869	927.750323761125	1444.165272337482	679.836479576707	878.691759871222	1501.086173388102	500.642113028894	954.052396841529	946.319905478341	643.824859063043	931.501143518746	970.809473443227	371.024410213264	980.445613646864	739.392164374124	614.593910059201	888.943115622594	635.384170711246	670.521234483793	963.278162928086	579.512310185958	592.280247240247	956.236813479012	492.639305005036	596.069943074955	1018.560165756895	791.941764003342	400.592958556660	978.651141080079	664.836812369037	320.367480123777	1082.772962449292	605.364844114933	381.415768416346	1104.054370727605	523.510107679384	373.188716973035	1058.243026352082	449.230956825765	363.994921414379	940.378693591051	362.290511880933	315.038677380551	976.217082477095	235.616159212391	367.168754545750	926.443389088648	404.676149677624	598.952495977307	848.992480935963	301.322663343004	651.061054330750	893.727535613414	207.228938718582	588.674130220651	757.467975483644	44.740580138292	542.591517680839	926.644457623779	96.907399066322	593.622433636524	834.640989586213	37.145459419755	623.948269876395	1043.104588641165	40.543461571857	631.130001964250	823.326575632987	105.746097260796	406.263719422084	890.782820673262	86.521655542304	323.304981834517	986.154248532766	131.153732411978	343.249354627292	1097.744517920060	55.870903152832	310.031602692303	832.688600603940	1083.090877421130	248.220846226147	859.330868109297	825.444469456587	245.283930045155	985.185807802790	1101.547976732894	802.525131599930	1215.481850982992	987.898254850542	774.238962783825	
54	24.361142857143	723.964550807023	1013.110504695630	537.478482723062	881.252756968015	1440.428734150410	348.328411297659	998.679056828015	1371.800952983114	500.479340770749	928.492539968567	1444.038933589908	680.183957030856	878.302146509429	1500.969801643025	501.545963038991	952.772338593939	946.071563527551	643.948179029080	929.304454983654	970.731635066868	371.270769726262	976.360494705776	738.549193736166	614.586790486000	883.709909682611	635.429940092285	670.981908987242	956.768627809437	578.908098997088	592.504345349866	948.733095273285	492.609257928884	596.313056884721	1015.982692614571	792.142783398321	400.944699978769	976.233221221024	664.856446679480	320.547858757130	1079.978588878248	605.660056282210	382.293547595533	1102.754018154105	525.972754034652	374.029246278625	1061.088889661789	451.239111217112	364.646370969574	949.739677123530	356.777739431621	314.974078287356	993.691083661641	232.529016705597	367.567332053957	918.920799797740	404.636283319418	599.226094553732	841.463062692868	301.232096969245	651.322389058920	886.297171370734	207.192558189066	588.880912627141	750.061910076509	44.614002216597	542.695663809757	919.219668843218	96.872350631418	593.686446683340	827.186808680261	37.106001686808	624.029786227846	1035.632681214093	40.554878694022	631.178084023355	849.764021199938	92.548744925079	406.008225881701	918.971911284116	77.839423639787	323.575550070169	1011.009012191531	128.733194867267	343.983224208582	1127.629431041705	61.005037768440	311.835657034393	822.765023170999	1084.705747488145	248.936268266822	843.393202039882	826.539017068346	247.402037576686	994.705478541504	1103.648602112513	802.805133117254	1230.487123333916	1002.946020559667	772.670848115550	
55	24.373428571429	722.596239821330	1013.366905855867	538.516236479508	879.753981176545	1440.472399513526	348.979660379193	997.988275883089	1371.316995048095	500.258638779157	929.153929945554	1443.703648073215	680.421349793659	877.904375959332	1500.686167861470	502.386126876907	951.556574790645	945.686205098012	643.953396792056	927.204312153830	970.441022417096	371.363308466726	972.329686519341	737.603439145348	614.536501184675	878.447515124260	635.407843336757	671.371820281743	950.198581149705	578.239579560306	592.664890726979	941.168895962913	492.530714025165	596.477183103971	1013.118531354750	791.757591829326	401.205155053433	973.412632778969	664.431689835573	320.548144067388	1076.598079652535	605.339126891503	383.210280398518	1100.809896074357	527.959419663469	374.976983189027	1063.297412490717	453.055147315324	365.403224999846	959.007121234474	351.542012299715	314.755815148780	1010.587948024813	230.241156730820	368.103451088673	911.301752669155	404.588862638461	599.438348411954	833.874670253656	301.107793547812	651.540123906792	878.809529086395	207.134490302830	589.026104895772	742.647714110128	44.440787202910	542.789869938818	911.771537021639	96.831038069456	593.716078480153	819.717957324424	37.063645195778	624.097605414863	1028.152800463299	40.592563515242	631.212389579423	875.955759193118	80.984579372274	405.570857430214	946.946621672364	70.615468013438	323.967130110872	1035.242453439371	127.428524272222	345.056834026261	1156.395412828079	67.273602097594	314.581960533365	812.990968616584	1086.447785353664	249.608420347890	828.082294482708	827.898909602952	249.537776319192	1003.975638725208	1105.767691490670	802.852078505725	1244.382698681925	1017.847415949803	771.017142399785	
56	24.385714285714	721.310938172019	1013.447418697089	539.406383034083	878.310509448797	1440.418926168245	349.511184521435	997.293350592312	1370.711849386549	499.946413013075	929.726840693141	1443.188392679240	680.542525478039	877.484597602758	1500.255843903816	503.130109277901	950.422145670963	945.174944591053	643.840337035301	925.193056919069	969.962804099686	371.299505489077	968.363658483129	736.561567377314	614.435266222992	873.173703660615	635.330796098292	671.691122271590	943.588608403917	577.512029802526	592.763338165624	933.569299834318	492.397025518515	596.563268525140	1010.016815805233	790.872751309998	401.387129555392	970.309245509522	663.639658381054	320.371343277554	1072.804016034042	604.519840595708	384.121274920472	1098.370046260226	529.510004238659	376.005576256495	1064.932690310672	454.689843444771	366.242990630628	968.015348839419	346.728134405117	314.463234637642	1026.616000938210	228.789548007179	368.802956317673	903.598852753551	404.544846627231	599.598184628874	826.234408082840	300.968302481906	651.728702889576	871.267261293309	207.069594691836	589.121251461946	735.219976990724	44.235271775437	542.874209602997	904.301651651670	96.788245398192	593.722418764547	812.234396835224	37.020306016819	624.154327552550	1020.666459421766	40.656363216998	631.234051928353	901.358592352802	71.227345842183	405.091374446340	974.129227281645	64.922697469405	324.564905318113	1058.405891511179	127.223365244471	346.475486868675	1183.551120270174	74.495797605846	318.185304278432	803.482788285298	1088.271900670937	250.275649945709	813.396530725749	829.451255336082	251.661643147706	1012.951127859167	1107.903419028491	802.667291537749	1257.158641220496	1032.473383055817	769.292805810265	
